<svg width="40" height="30" viewBox="0 0 40 30" fill="none" xmlns="http://www.w3.org/2000/svg">
<path d="M24.5396 2.36791C24.7119 1.96136 25.2881 1.96136 25.4604 2.36791L25.6438 2.80069C26.0766 3.82218 27.4302 4.03656 28.1575 3.19883L28.4657 2.84391C28.7552 2.51049 29.3032 2.68854 29.3414 3.12843L29.382 3.5967C29.4781 4.70195 30.6992 5.32413 31.6498 4.75215L32.0525 4.50983C32.4309 4.28218 32.897 4.62085 32.7974 5.05103L32.6914 5.50894C32.4412 6.58977 33.4102 7.55883 34.4911 7.30861L34.949 7.2026C35.3791 7.10301 35.7178 7.56915 35.4902 7.94749L35.2478 8.35024C34.6759 9.30084 35.298 10.5219 36.4033 10.618L36.8716 10.6586C37.3115 10.6968 37.4895 11.2448 37.1561 11.5343L36.8012 11.8425C35.9634 12.5698 36.1778 13.9234 37.1993 14.3562L37.6321 14.5396C38.0386 14.7119 38.0386 15.2881 37.6321 15.4604L37.1993 15.6438C36.1778 16.0766 35.9634 17.4302 36.8012 18.1575L37.1561 18.4657C37.4895 18.7552 37.3115 19.3032 36.8716 19.3414L36.4033 19.382C35.298 19.4781 34.6759 20.6992 35.2478 21.6498L35.4902 22.0525C35.7178 22.4309 35.3791 22.897 34.949 22.7974L34.4911 22.6914C33.4102 22.4412 32.4412 23.4102 32.6914 24.4911L32.7974 24.949C32.897 25.3791 32.4309 25.7178 32.0525 25.4902L31.6498 25.2478C30.6992 24.6759 29.4781 25.298 29.382 26.4033L29.3414 26.8716C29.3032 27.3115 28.7552 27.4895 28.4657 27.1561L28.1575 26.8012C27.4302 25.9634 26.0766 26.1778 25.6438 27.1993L25.4604 27.6321C25.2881 28.0386 24.7119 28.0386 24.5396 27.6321L24.3562 27.1993C23.9234 26.1778 22.5698 25.9634 21.8425 26.8012L21.5343 27.1561C21.2448 27.4895 20.6968 27.3115 20.6586 26.8716L20.618 26.4033C20.5219 25.298 19.3008 24.6759 18.3502 25.2478L17.9475 25.4902C17.5692 25.7178 17.103 25.3791 17.2026 24.949L17.3086 24.4911C17.5588 23.4102 16.5898 22.4412 15.5089 22.6914L15.051 22.7974C14.6209 22.897 14.2822 22.4309 14.5098 22.0525L14.7522 21.6498C15.3241 20.6992 14.702 19.4781 13.5967 19.382L13.1284 19.3414C12.6885 19.3032 12.5105 18.7552 12.8439 18.4657L13.1988 18.1575C14.0366 17.4302 13.8222 16.0766 12.8007 15.6438L12.3679 15.4604C11.9614 15.2881 11.9614 14.7119 12.3679 14.5396L12.8007 14.3562C13.8222 13.9234 14.0366 12.5698 13.1988 11.8425L12.871 12.22L13.1988 11.8425L12.8439 11.5343C12.5105 11.2448 12.6885 10.6968 13.1284 10.6586L13.5967 10.618C14.702 10.5219 15.3241 9.30084 14.7522 8.35024L14.5098 7.94749C14.2822 7.56915 14.6209 7.10301 15.051 7.2026L15.5089 7.30861C16.5898 7.55884 17.5588 6.58977 17.3086 5.50894L17.2026 5.05103C17.103 4.62085 17.5691 4.28218 17.9475 4.50983L18.3502 4.75215C19.3008 5.32413 20.5219 4.70195 20.618 3.5967L20.6586 3.12843C20.6968 2.68854 21.2448 2.51049 21.5343 2.84391L21.8425 3.19883C22.5698 4.03656 23.9234 3.82217 24.3562 2.80069L24.5396 2.36791Z" stroke="#3F3F3F"/>
<path d="M25.3536 15.3536C25.5488 15.1583 25.5488 14.8417 25.3536 14.6464L22.1716 11.4645C21.9763 11.2692 21.6597 11.2692 21.4645 11.4645C21.2692 11.6597 21.2692 11.9763 21.4645 12.1716L24.2929 15L21.4645 17.8284C21.2692 18.0237 21.2692 18.3403 21.4645 18.5355C21.6597 18.7308 21.9763 18.7308 22.1716 18.5355L25.3536 15.3536ZM4.37114e-08 15.5L25 15.5L25 14.5L-4.37114e-08 14.5L4.37114e-08 15.5Z" fill="#3F3F3F"/>
</svg>
