<svg width="24" height="24" viewBox="0 0 24 24" fill="none" xmlns="http://www.w3.org/2000/svg">
<path d="M23.6718 12.0471C23.6718 13.6784 23.639 15.3143 23.6812 16.9456C23.7515 19.8331 21.9375 22.0643 19.6265 23.0581C18.6984 23.4565 17.7234 23.6674 16.7156 23.6674C13.5609 23.6721 10.4015 23.7143 7.24683 23.6534C4.87026 23.6065 2.91558 22.6128 1.51401 20.6534C0.778076 19.6221 0.426514 18.4503 0.426514 17.1799C0.426514 13.819 0.426514 10.4628 0.426514 7.10182C0.426514 4.35964 1.76245 2.44245 4.13433 1.19558C5.16558 0.656513 6.28589 0.426826 7.45308 0.422138C10.514 0.422138 13.5796 0.403388 16.6406 0.431513C19.0171 0.450263 21 1.35964 22.4625 3.27214C23.2781 4.34089 23.6718 5.56901 23.6718 6.91901C23.6718 8.62526 23.6718 10.3362 23.6718 12.0471ZM2.1562 12.0471C2.1562 13.7674 2.1562 15.4831 2.1562 17.2034C2.1562 17.9721 2.33433 18.694 2.73276 19.3456C3.77808 21.0565 5.35776 21.8909 7.31714 21.9237C10.4625 21.9706 13.6125 21.9424 16.7624 21.9331C17.5359 21.9331 18.2859 21.7737 18.9843 21.4409C20.8874 20.5315 21.9515 19.0831 21.9421 16.9081C21.9234 13.5799 21.9374 10.2518 21.9374 6.9237C21.9374 5.98151 21.6703 5.11901 21.1124 4.35964C20.0343 2.90183 18.5437 2.18464 16.7624 2.16589C13.6218 2.12839 10.4812 2.15183 7.34058 2.15651C6.67026 2.15651 6.02339 2.29245 5.39526 2.52683C3.67026 3.16901 2.06714 4.79557 2.14214 7.19089C2.19839 8.81276 2.1562 10.4299 2.1562 12.0471Z" fill="#3F3F3F"/>
<path d="M12.075 17.0156C9.05157 17.0156 6.61407 14.6063 6.60938 11.6063C6.60469 8.65313 9.06095 6.23438 12.0656 6.23438C15.0797 6.22969 17.5266 8.64376 17.5313 11.6203C17.5313 14.5922 15.0891 17.0109 12.075 17.0156ZM12.075 15.2813C14.1328 15.2813 15.8016 13.6359 15.7969 11.6109C15.7922 9.60469 14.1234 7.96407 12.075 7.96407C10.0172 7.96407 8.33907 9.60001 8.33907 11.6203C8.34376 13.6453 10.0172 15.2859 12.075 15.2813Z" fill="#3F3F3F"/>
<path d="M18.1643 4.59375C18.7971 4.59375 19.3127 5.13281 19.3127 5.79375C19.308 6.45469 18.7877 6.98906 18.1549 6.98437C17.5315 6.97969 17.0205 6.44531 17.0205 5.79844C17.0159 5.1375 17.5315 4.59375 18.1643 4.59375Z" fill="#3F3F3F"/>
</svg>
