<svg width="256" height="73" viewBox="0 0 256 73" fill="none" xmlns="http://www.w3.org/2000/svg">
<path d="M4.38867 71.0977C4.16081 71.0977 3.91667 71.0163 3.65625 70.8535C2.35417 70.1374 1.70312 67.8099 1.70312 63.8711C1.70312 58.793 2.66341 51.9733 4.58398 43.4121C3.80273 43.6074 3.13542 43.7051 2.58203 43.7051C1.41016 43.7051 0.824219 43.2819 0.824219 42.4355C0.824219 41.752 1.26367 41.1986 2.14258 40.7754C2.66341 40.5475 3.31445 40.4336 4.0957 40.4336L5.26758 40.4824C7.1556 31.9212 9.43424 23.1159 12.1035 14.0664C12.5918 12.4714 13.0312 10.9902 13.4219 9.62305C13.8125 8.22331 14.0241 6.97005 14.0566 5.86328C14.1217 4.75651 14.3333 3.86133 14.6914 3.17773C15.0495 2.49414 15.7168 2.15234 16.6934 2.15234C18.5488 2.15234 19.4766 2.70573 19.4766 3.8125C19.4766 4.52865 19.151 5.7168 18.5 7.37695C16.2865 13.041 14.2357 19.2422 12.3477 25.9805C11.2409 29.724 10.1992 33.7604 9.22266 38.0898C8.83203 39.7174 8.60417 40.7266 8.53906 41.1172C12.2174 40.043 17.4583 36.1367 24.2617 29.3984C27.9401 25.8177 31 22.5299 33.4414 19.5352C36.9896 15.2383 40.0169 10.8763 42.5234 6.44922C43.8255 4.10547 44.4766 2.75456 44.4766 2.39648C44.4766 2.23372 44.623 1.97331 44.916 1.61523C45.2415 1.25716 45.7135 1.07812 46.332 1.07812C46.5924 1.07812 46.8691 1.11068 47.1621 1.17578C48.2038 1.37109 48.7246 1.79427 48.7246 2.44531C48.7246 2.86849 47.8457 4.34961 46.0879 6.88867C41.9538 12.8457 37.901 18.0378 33.9297 22.4648C22.7318 34.2161 14.6589 40.7428 9.71094 42.0449C11.3711 42.5332 13.8613 45.7559 17.1816 51.7129C20.502 57.6374 23.0247 61.4297 24.75 63.0898C26.5078 64.75 28.1842 65.7428 29.7793 66.0684C31.3743 66.3613 32.237 66.6055 32.3672 66.8008C32.4974 66.9961 32.5625 67.1589 32.5625 67.2891C32.5625 68.0052 32.1068 68.3633 31.1953 68.3633C29.763 68.3633 27.9401 67.6797 25.7266 66.3125C24.099 65.3034 22.3737 63.5293 20.5508 60.9902C18.7279 58.4186 16.0586 54.1055 12.543 48.0508C10.5573 44.5677 9.14128 42.7936 8.29492 42.7285C8.13216 43.3145 7.6276 45.6094 6.78125 49.6133C5.96745 53.5846 5.44661 56.6283 5.21875 58.7441C4.99089 60.86 4.87695 62.5527 4.87695 63.8223C4.87695 64.9616 4.94206 66.0195 5.07227 66.9961C5.16992 67.8424 5.21875 68.5423 5.21875 69.0957C5.21875 70.4303 4.94206 71.0977 4.38867 71.0977ZM2.43555 42.4844C2.69596 42.4844 3.00521 42.4518 3.36328 42.3867C3.6888 42.3216 3.99805 42.224 4.29102 42.0938C4.58398 41.9635 4.73047 41.8822 4.73047 41.8496C4.66536 41.8171 4.24219 41.8008 3.46094 41.8008C2.48438 41.8008 1.99609 41.9635 1.99609 42.2891C1.99609 42.4193 2.14258 42.4844 2.43555 42.4844ZM33.5879 44.0469C32.5137 44.0469 31.7487 43.6888 31.293 42.9727C31 42.5169 30.8535 41.931 30.8535 41.2148C30.8535 38.9036 32.3835 36.0553 35.4434 32.6699C38.5358 29.252 41.612 27.543 44.6719 27.543C46.4948 27.543 47.6667 28.2266 48.1875 29.5938H48.4316C49.8314 29.5938 50.5312 30.0495 50.5312 30.9609C50.5312 31.3841 50.2383 32.0189 49.6523 32.8652C49.4245 33.2559 48.806 34.5742 47.7969 36.8203C46.7878 39.0664 46.2832 40.6289 46.2832 41.5078C46.2832 42.224 46.6087 42.582 47.2598 42.582C48.041 42.582 49.2292 42.0286 50.8242 40.9219C52.9076 39.4896 54.4212 38.3503 55.3652 37.5039C56.3092 36.6576 56.9277 36.2344 57.2207 36.2344C57.3509 36.2669 57.416 36.3483 57.416 36.4785C57.416 36.9668 56 38.334 53.168 40.5801C50.3359 42.8262 48.0573 43.9492 46.332 43.9492C45.388 43.9492 44.7044 43.6562 44.2812 43.0703C43.9557 42.6797 43.793 42.1263 43.793 41.4102C43.793 40.043 44.1673 38.1061 44.916 35.5996C43.7441 36.804 42.7676 37.748 41.9863 38.4316C41.2376 39.1152 40.554 39.75 39.9355 40.3359C37.429 42.8099 35.3132 44.0469 33.5879 44.0469ZM35.7363 41.6055C37.2663 41.6055 40.4238 38.4154 45.209 32.0352C45.502 31.6445 45.7949 31.1725 46.0879 30.6191C45.7624 30.4238 45.5996 30.2448 45.5996 30.082V29.8379C45.5996 29.61 45.3229 29.4961 44.7695 29.4961C44.1836 29.4961 42.9629 30.1471 41.1074 31.4492C39.2845 32.7513 37.6569 34.6068 36.2246 37.0156C35.2806 38.6758 34.8086 39.8802 34.8086 40.6289C34.8086 40.987 34.9062 41.2474 35.1016 41.4102C35.2969 41.5404 35.5085 41.6055 35.7363 41.6055ZM54.0469 47.9043H53.8516C53.2656 47.9043 52.7448 47.7741 52.2891 47.5137C51.8008 47.2533 51.5566 46.8952 51.5566 46.4395C51.5566 45.2676 52.5983 43.7539 54.6816 41.8984C56.5697 40.401 58.36 39.2454 60.0527 38.4316C59.7923 38.2363 59.4017 38.0573 58.8809 37.8945C56.6673 37.2109 55.5605 36.2344 55.5605 34.9648C55.5605 34.1836 55.9023 33.207 56.5859 32.0352C57.3672 30.7656 58.3926 29.6914 59.6621 28.8125C60.9642 27.9336 61.957 27.4941 62.6406 27.4941C62.9336 27.4941 63.194 27.5592 63.4219 27.6895C64.138 28.1452 64.4961 28.7474 64.4961 29.4961C64.4961 30.9935 63.8613 31.7422 62.5918 31.7422C62.2663 31.7422 61.9733 31.6608 61.7129 31.498C61.4525 31.3353 61.2246 31.2539 61.0293 31.2539C60.7038 31.2539 60.248 31.612 59.6621 32.3281C58.7181 33.5326 58.2461 34.4277 58.2461 35.0137C58.2461 35.6322 58.9785 36.2018 60.4434 36.7227C61.5176 37.1133 62.2663 37.4876 62.6895 37.8457C65.554 37.097 68.3372 36.5762 71.0391 36.2832C71.2018 36.3483 71.2832 36.4948 71.2832 36.7227C71.2832 36.7878 70.4857 36.9668 68.8906 37.2598C67.2956 37.5527 65.4076 38.0898 63.2266 38.8711L63.2754 39.2617C63.2754 40.3359 62.4779 41.7031 60.8828 43.3633C58.1159 46.293 55.8372 47.8066 54.0469 47.9043ZM53.168 46.3418C54.2096 46.3418 55.6582 45.4303 57.5137 43.6074C59.5645 41.6217 60.5898 40.2871 60.5898 39.6035L60.541 39.457C57.8717 40.8568 55.7559 42.4193 54.1934 44.1445C53.3145 45.0885 52.875 45.7396 52.875 46.0977C52.875 46.2604 52.9727 46.3418 53.168 46.3418ZM73.1387 44.0469C71.4134 44.0469 70.2578 43.3633 69.6719 41.9961C69.4115 41.4427 69.2812 40.7754 69.2812 39.9941C69.2812 38.8874 69.5905 37.1947 70.209 34.916C71.2507 31.1074 72.1296 28.8451 72.8457 28.1289C73.3014 27.7383 73.7897 27.543 74.3105 27.543C74.8639 27.543 75.3197 27.7546 75.6777 28.1777C76.0358 28.6009 76.2148 28.9753 76.2148 29.3008C76.2148 29.8216 75.5964 30.9121 74.3594 32.5723C73.2201 34.2324 72.4225 35.8112 71.9668 37.3086C71.5436 38.7734 71.332 39.8802 71.332 40.6289C71.332 41.0846 71.3971 41.4753 71.5273 41.8008C71.7227 42.2565 72.2598 42.4844 73.1387 42.4844C75.1895 42.4844 77.5495 41.4427 80.2188 39.3594C82.9206 37.276 84.5807 36.2344 85.1992 36.2344C85.2643 36.2344 85.3457 36.2995 85.4434 36.4297C85.5736 36.5599 85.6549 36.6901 85.6875 36.8203C85.6875 37.0482 84.5319 38.0247 82.2207 39.75C79.9421 41.4753 78.0703 42.6309 76.6055 43.2168C75.1732 43.7702 74.0176 44.0469 73.1387 44.0469ZM76.1172 26.5176C75.7917 26.5176 75.4499 26.4036 75.0918 26.1758C74.5059 25.7852 74.2129 25.4271 74.2129 25.1016C74.2129 24.9388 74.3268 24.5807 74.5547 24.0273C74.7826 23.4414 75.0104 23.0508 75.2383 22.8555C75.4987 22.6602 75.9544 22.5625 76.6055 22.5625C77.1263 22.5625 77.5007 22.8229 77.7285 23.3438C77.8913 23.6693 77.9727 24.0111 77.9727 24.3691C77.9727 25.4108 77.5332 26.0944 76.6543 26.4199C76.4915 26.485 76.3125 26.5176 76.1172 26.5176ZM85.248 44.0469C84.1738 44.0469 83.4089 43.6888 82.9531 42.9727C82.6602 42.5169 82.5137 41.931 82.5137 41.2148C82.5137 38.9036 84.0436 36.0553 87.1035 32.6699C90.196 29.252 93.2721 27.543 96.332 27.543C98.1549 27.543 99.3268 28.2266 99.8477 29.5938H100.092C101.492 29.5938 102.191 30.0495 102.191 30.9609C102.191 31.3841 101.898 32.0189 101.312 32.8652C101.085 33.2559 100.466 34.5742 99.457 36.8203C98.4479 39.0664 97.9434 40.6289 97.9434 41.5078C97.9434 42.224 98.2689 42.582 98.9199 42.582C99.7012 42.582 100.889 42.0286 102.484 40.9219C104.568 39.4896 106.081 38.3503 107.025 37.5039C107.969 36.6576 108.588 36.2344 108.881 36.2344C109.011 36.2669 109.076 36.3483 109.076 36.4785C109.076 36.9668 107.66 38.334 104.828 40.5801C101.996 42.8262 99.7174 43.9492 97.9922 43.9492C97.0482 43.9492 96.3646 43.6562 95.9414 43.0703C95.6159 42.6797 95.4531 42.1263 95.4531 41.4102C95.4531 40.043 95.8275 38.1061 96.5762 35.5996C95.4043 36.804 94.4277 37.748 93.6465 38.4316C92.8978 39.1152 92.2142 39.75 91.5957 40.3359C89.0892 42.8099 86.9733 44.0469 85.248 44.0469ZM87.3965 41.6055C88.9264 41.6055 92.084 38.4154 96.8691 32.0352C97.1621 31.6445 97.4551 31.1725 97.748 30.6191C97.4225 30.4238 97.2598 30.2448 97.2598 30.082V29.8379C97.2598 29.61 96.9831 29.4961 96.4297 29.4961C95.8438 29.4961 94.623 30.1471 92.7676 31.4492C90.9447 32.7513 89.3171 34.6068 87.8848 37.0156C86.9408 38.6758 86.4688 39.8802 86.4688 40.6289C86.4688 40.987 86.5664 41.2474 86.7617 41.4102C86.957 41.5404 87.1686 41.6055 87.3965 41.6055ZM181.537 72.6602C180.235 72.6602 178.412 72.4811 176.068 72.123C171.837 71.472 167.735 70.3978 163.764 68.9004C159.792 67.403 155.333 66.5892 150.385 66.459L148.822 68.0703C146.739 70.2839 144.721 71.3906 142.768 71.3906C141.954 71.3906 141.156 71.1953 140.375 70.8047C139.724 70.4792 139.398 70.0234 139.398 69.4375C139.398 69.1771 139.464 68.9004 139.594 68.6074C140.017 67.5983 140.798 66.8333 141.938 66.3125C143.077 65.7591 144.997 65.401 147.699 65.2383C147.895 65.0104 148.122 64.6686 148.383 64.2129C150.857 60.1113 153.575 52.7546 156.537 42.1426C158.523 34.8509 160.281 26.6641 161.811 17.582C162.755 12.0482 163.227 8.17448 163.227 5.96094C163.227 4.98438 163.178 4.08919 163.08 3.27539L163.031 2.10352C163.031 1.35482 163.764 0.980469 165.229 0.980469C166.531 0.980469 167.296 1.22461 167.523 1.71289C167.751 2.20117 167.865 2.80339 167.865 3.51953C167.865 5.76562 167.361 9.19987 166.352 13.8223L163.275 27.3477C159.239 44.6003 155.398 56.7747 151.752 63.8711L151.02 65.2383C154.991 65.2708 159.271 65.9219 163.861 67.1914C168.484 68.4609 172.488 69.1771 175.873 69.3398C179.291 69.4701 181.488 69.6491 182.465 69.877C183.441 70.0723 184.011 70.3164 184.174 70.6094C184.337 70.9023 184.418 71.1139 184.418 71.2441C184.418 71.6022 184.141 71.9603 183.588 72.3184C183.23 72.5462 182.546 72.6602 181.537 72.6602ZM141.84 69.584C142.621 69.584 143.598 69.1934 144.77 68.4121C145.128 68.1842 145.811 67.582 146.82 66.6055L145.648 66.752C143.663 66.9798 142.214 67.4844 141.303 68.2656C140.945 68.5911 140.766 68.8516 140.766 69.0469C140.766 69.2422 140.928 69.3887 141.254 69.4863C141.417 69.5514 141.612 69.584 141.84 69.584ZM170.6 44.0469C169.525 44.0469 168.76 43.6888 168.305 42.9727C168.012 42.5169 167.865 41.931 167.865 41.2148C167.865 38.9036 169.395 36.0553 172.455 32.6699C175.548 29.252 178.624 27.543 181.684 27.543C183.507 27.543 184.678 28.2266 185.199 29.5938H185.443C186.843 29.5938 187.543 30.0495 187.543 30.9609C187.543 31.3841 187.25 32.0189 186.664 32.8652C186.436 33.2559 185.818 34.5742 184.809 36.8203C183.799 39.0664 183.295 40.6289 183.295 41.5078C183.295 42.224 183.62 42.582 184.271 42.582C185.053 42.582 186.241 42.0286 187.836 40.9219C189.919 39.4896 191.433 38.3503 192.377 37.5039C193.321 36.6576 193.939 36.2344 194.232 36.2344C194.363 36.2669 194.428 36.3483 194.428 36.4785C194.428 36.9668 193.012 38.334 190.18 40.5801C187.348 42.8262 185.069 43.9492 183.344 43.9492C182.4 43.9492 181.716 43.6562 181.293 43.0703C180.967 42.6797 180.805 42.1263 180.805 41.4102C180.805 40.043 181.179 38.1061 181.928 35.5996C180.756 36.804 179.779 37.748 178.998 38.4316C178.249 39.1152 177.566 39.75 176.947 40.3359C174.441 42.8099 172.325 44.0469 170.6 44.0469ZM172.748 41.6055C174.278 41.6055 177.436 38.4154 182.221 32.0352C182.514 31.6445 182.807 31.1725 183.1 30.6191C182.774 30.4238 182.611 30.2448 182.611 30.082V29.8379C182.611 29.61 182.335 29.4961 181.781 29.4961C181.195 29.4961 179.975 30.1471 178.119 31.4492C176.296 32.7513 174.669 34.6068 173.236 37.0156C172.292 38.6758 171.82 39.8802 171.82 40.6289C171.82 40.987 171.918 41.2474 172.113 41.4102C172.309 41.5404 172.52 41.6055 172.748 41.6055ZM193.5 44.3887C192.328 44.3887 191.742 43.64 191.742 42.1426C191.742 41.3939 191.905 40.4173 192.23 39.2129C192.556 37.9759 193.012 36.4297 193.598 34.5742C194.216 32.6862 194.721 31.1074 195.111 29.8379C195.502 28.5358 195.909 27.8197 196.332 27.6895C196.788 27.5267 197.13 27.4453 197.357 27.4453C197.748 27.4453 198.122 27.5755 198.48 27.8359C198.839 28.0638 199.018 28.3242 199.018 28.6172C199.018 28.8451 198.936 29.0892 198.773 29.3496C197.797 30.9121 196.885 33.0117 196.039 35.6484C194.997 38.6432 194.477 40.7917 194.477 42.0938C194.477 42.582 194.574 42.8262 194.77 42.8262C195.193 42.8262 196.397 41.6706 198.383 39.3594C201.15 36.2018 203.298 33.8743 204.828 32.377C207.042 30.2611 208.93 29.0078 210.492 28.6172C210.753 28.5521 210.98 28.5195 211.176 28.5195C211.469 28.5195 211.713 28.5846 211.908 28.7148C212.494 29.0729 212.787 29.4798 212.787 29.9355V30.7656C212.787 31.5794 212.657 32.6536 212.396 33.9883C212.071 35.681 211.908 36.9668 211.908 37.8457C211.908 39.0827 212.429 39.7012 213.471 39.7012C214.545 39.7012 216.547 39.0664 219.477 37.7969C220.746 37.2435 221.69 36.8529 222.309 36.625C222.927 36.3971 223.334 36.2832 223.529 36.2832C223.692 36.3158 223.773 36.3971 223.773 36.5273C223.773 36.7227 223.692 36.8854 223.529 37.0156C223.367 37.1458 221.576 38.0085 218.158 39.6035C215.684 40.7428 213.796 41.3125 212.494 41.3125C211.941 41.3125 211.452 41.2311 211.029 41.0684C210.053 40.6452 209.564 39.3757 209.564 37.2598C209.564 36.2181 209.678 34.9974 209.906 33.5977C210.004 32.9792 210.053 32.4583 210.053 32.0352C210.053 31.1237 209.825 30.668 209.369 30.668C208.523 30.668 207.221 31.5306 205.463 33.2559C203.965 34.7533 201.736 37.1784 198.773 40.5312C196.625 43.1029 194.867 44.3887 193.5 44.3887ZM220.355 47.9043H220.16C219.574 47.9043 219.053 47.7741 218.598 47.5137C218.109 47.2533 217.865 46.8952 217.865 46.4395C217.865 45.2676 218.907 43.7539 220.99 41.8984C222.878 40.401 224.669 39.2454 226.361 38.4316C226.101 38.2363 225.71 38.0573 225.189 37.8945C222.976 37.2109 221.869 36.2344 221.869 34.9648C221.869 34.1836 222.211 33.207 222.895 32.0352C223.676 30.7656 224.701 29.6914 225.971 28.8125C227.273 27.9336 228.266 27.4941 228.949 27.4941C229.242 27.4941 229.503 27.5592 229.73 27.6895C230.447 28.1452 230.805 28.7474 230.805 29.4961C230.805 30.9935 230.17 31.7422 228.9 31.7422C228.575 31.7422 228.282 31.6608 228.021 31.498C227.761 31.3353 227.533 31.2539 227.338 31.2539C227.012 31.2539 226.557 31.612 225.971 32.3281C225.027 33.5326 224.555 34.4277 224.555 35.0137C224.555 35.6322 225.287 36.2018 226.752 36.7227C227.826 37.1133 228.575 37.4876 228.998 37.8457C231.863 37.097 234.646 36.5762 237.348 36.2832C237.51 36.3483 237.592 36.4948 237.592 36.7227C237.592 36.7878 236.794 36.9668 235.199 37.2598C233.604 37.5527 231.716 38.0898 229.535 38.8711L229.584 39.2617C229.584 40.3359 228.786 41.7031 227.191 43.3633C224.424 46.293 222.146 47.8066 220.355 47.9043ZM219.477 46.3418C220.518 46.3418 221.967 45.4303 223.822 43.6074C225.873 41.6217 226.898 40.2871 226.898 39.6035L226.85 39.457C224.18 40.8568 222.064 42.4193 220.502 44.1445C219.623 45.0885 219.184 45.7396 219.184 46.0977C219.184 46.2604 219.281 46.3418 219.477 46.3418ZM235.346 43.9492C235.248 43.9492 235.134 43.9492 235.004 43.9492C234.874 43.9492 234.809 43.6888 234.809 43.168C234.809 41.1172 236.273 35.1602 239.203 25.2969C242.882 12.9922 244.965 5.87956 245.453 3.95898C245.974 2.00586 246.69 1.0293 247.602 1.0293C248.643 1.0293 249.164 1.51758 249.164 2.49414C249.164 3.4056 247.781 7.81641 245.014 15.7266C242.279 23.6367 240.619 28.5521 240.033 30.4727C239.48 32.3932 238.992 34.0859 238.568 35.5508C238.145 37.0156 237.934 37.8132 237.934 37.9434C238.389 37.2272 238.78 36.5762 239.105 35.9902C240.31 33.8418 241.303 32.1979 242.084 31.0586C242.865 29.8867 243.793 28.8776 244.867 28.0312C245.486 27.5755 246.039 27.3477 246.527 27.3477C246.853 27.3477 247.146 27.4616 247.406 27.6895C247.764 28.015 247.943 28.373 247.943 28.7637C247.943 29.5775 247.113 30.7656 245.453 32.3281C243.337 34.3138 242.068 35.7298 241.645 36.5762C241.417 37.0645 241.303 37.6504 241.303 38.334C241.303 39.2454 241.726 39.8965 242.572 40.2871C242.995 40.6777 243.646 40.873 244.525 40.873C246.739 40.873 249.001 40.1243 251.312 38.627C253.656 37.097 254.958 36.332 255.219 36.332C255.512 36.332 255.658 36.4622 255.658 36.7227C255.658 36.918 254.275 37.8457 251.508 39.5059C250.043 40.3522 248.611 40.987 247.211 41.4102C246.007 41.7682 244.835 41.9635 243.695 41.9961C241.482 41.9961 239.805 41.1335 238.666 39.4082C238.178 40.3848 237.689 41.3939 237.201 42.4355C236.745 43.4447 236.127 43.9492 235.346 43.9492ZM242.133 32.6211C242.198 32.5885 242.686 32.1003 243.598 31.1562C244.118 30.6354 244.542 30.196 244.867 29.8379C245.193 29.4473 245.355 29.2194 245.355 29.1543H245.307C245.046 29.1543 244.232 30.0007 242.865 31.6934C242.377 32.2793 242.133 32.5885 242.133 32.6211Z" fill="#FEDD25"/>
</svg>
